# This file uses centimeters as units for non-parametric coordinates.

mtllib Fridge_Geos.mtl
g default
v 0.000000 0.000000 0.000000
v 1.522004 0.000000 0.000000
v 0.000000 3.672405 0.000000
v 1.522004 3.672405 0.000000
v 0.027080 3.651660 0.160872
v 1.494923 3.651660 0.160872
v 0.020385 0.033277 0.160872
v 1.501618 0.033277 0.160872
v 0.000000 2.484555 0.000000
v 1.522004 2.484555 0.000000
v 1.501619 2.451277 0.160872
v 0.020385 2.451277 0.160872
v 0.027080 2.527185 0.160872
v 1.494923 2.527185 0.160872
v 1.522004 2.506440 0.000000
v 0.000000 2.506440 0.000000
v 0.000000 1.987644 0.000000
v 1.522004 1.987644 0.000000
v 1.501619 1.967677 0.160872
v 0.020385 1.967677 0.160872
v 0.027080 2.976975 0.160872
v 1.494923 2.976975 0.160872
v 1.522004 2.972826 0.000000
v 0.000000 2.972826 0.000000
v 1.456892 2.564014 0.128032
v 1.456892 2.546830 0.032840
v 1.456892 2.936585 0.128032
v 1.456892 2.933148 0.032840
v 1.456892 2.027443 0.033980
v 1.456892 2.010808 0.126891
v 1.456892 2.413700 0.126891
v 1.456892 2.441424 0.033980
vt 0.048325 0.768013
vt 0.053384 0.764138
vt 0.327568 0.764138
vt 0.332627 0.768013
vt 0.052133 0.063744
vt 0.048325 0.057528
vt 0.332627 0.057528
vt 0.328819 0.063744
vt 0.048325 0.428808
vt 0.048325 0.521628
vt 0.332627 0.521628
vt 0.332627 0.428808
vt 0.052133 0.515412
vt 0.412167 0.317146
vt 0.052133 0.425078
vt 0.412167 0.487299
vt 0.328819 0.425078
vt 0.328819 0.515412
vt 0.053384 0.638111
vt 0.053384 0.554093
vt 0.327568 0.554093
vt 0.373980 0.475904
vt 0.327568 0.638111
vt 0.048325 0.637336
vt 0.048325 0.550218
vt 0.332627 0.550218
vt 0.332627 0.637336
vt 0.373980 0.310309
vt 0.412636 0.530622
vt 0.412636 0.689405
vt 0.373511 0.690817
vt 0.373511 0.537685
vt 0.426134 0.514021
vt 0.360013 0.522548
vt 0.360013 0.707418
vt 0.426134 0.705713
vt 0.426134 0.300788
vt 0.360013 0.292582
vt 0.360013 0.491349
vt 0.426134 0.505026
vn 0.000000 0.991787 0.127900
vn 0.000000 0.991787 0.127900
vn 0.000000 0.991787 0.127899
vn 0.000000 0.991787 0.127899
vn 0.000000 -0.979268 0.202567
vn 0.000000 -0.979268 0.202567
vn 0.000000 -0.979268 0.202567
vn 0.000000 -0.979268 0.202567
vn 1.000000 0.000000 0.000003
vn 1.000000 0.000000 0.000003
vn 1.000000 0.000000 0.000003
vn 1.000000 0.000000 0.000003
vn 0.000000 0.000000 1.000000
vn 0.000000 0.000000 1.000000
vn 0.000000 0.000000 1.000000
vn 0.000000 0.000000 1.000000
vn -0.992067 0.000000 0.125712
vn -0.992067 0.000000 0.125711
vn -0.992067 0.000000 0.125712
vn -0.992067 0.000000 0.125711
vn 0.000000 0.000000 1.000000
vn 0.000000 0.000000 1.000000
vn 0.000000 0.000000 1.000000
vn 0.000000 0.000000 1.000000
vn 1.000000 -0.000001 0.000001
vn 1.000000 -0.000000 0.000002
vn 1.000000 -0.000001 0.000001
vn 1.000000 0.000000 0.000003
vn -0.986126 0.000000 0.165999
vn -0.986126 -0.000000 0.165999
vn -0.986126 -0.000000 0.165999
vn -0.986126 -0.000000 0.165999
vn 0.000000 0.979268 0.202571
vn 0.000000 0.979269 0.202565
vn 0.000000 0.979268 0.202570
vn 0.000000 0.979269 0.202565
vn 0.000000 -0.991787 0.127897
vn 0.000000 -0.991787 0.127898
vn 0.000000 -0.991787 0.127897
vn 0.000000 -0.991787 0.127898
vn 0.992067 0.000000 0.125712
vn 0.992067 0.000000 0.125711
vn 0.992067 0.000000 0.125711
vn 0.992067 0.000000 0.125711
vn 0.000000 0.000000 1.000000
vn 0.000000 0.000000 1.000000
vn -0.992067 0.000000 0.125712
vn -0.992067 0.000000 0.125712
vn 0.000000 0.000000 1.000000
vn 0.000000 0.000000 1.000000
vn 0.986126 0.000000 0.165999
vn 0.986126 0.000000 0.165999
vn 0.986126 0.000000 0.165999
vn 0.986126 0.000001 0.165999
vn -0.986126 -0.000000 0.165999
vn -0.986126 -0.000000 0.165999
vn 0.518627 0.854694 -0.022915
vn 0.546681 0.836650 -0.034017
vn 0.614270 0.786675 -0.061762
vn 0.741867 0.659882 -0.119119
vn 0.653559 0.000000 -0.756876
vn 0.653559 0.000000 -0.756876
vn 0.653559 0.000000 -0.756876
vn 0.653559 0.000000 -0.756876
vn 0.717538 -0.696066 0.025129
vn 0.576100 -0.810438 0.106297
vn 0.615730 -0.783333 0.085246
vn 0.558642 -0.821367 0.115224
vn 0.450329 -0.000000 0.892863
vn 0.450327 0.000000 0.892864
vn 0.450328 -0.000000 0.892863
vn 0.450327 0.000000 0.892864
vn 0.569951 0.808818 0.144809
vn 0.603610 0.779501 0.167429
vn 0.590465 0.791342 0.158523
vn 0.612236 0.771444 0.173325
vn 0.604947 0.000000 -0.796266
vn 0.604947 0.000000 -0.796266
vn 0.604946 0.000000 -0.796267
vn 0.604946 0.000000 -0.796267
vn 0.714860 -0.670075 -0.199938
vn 0.538907 -0.832999 -0.125269
vn 0.602726 -0.783412 -0.151614
vn 0.507286 -0.854408 -0.112461
vn 0.462662 0.000000 0.886535
vn 0.462662 0.000000 0.886535
vn 0.462662 0.000000 0.886535
vn 0.462662 0.000000 0.886535
s 1
g Fridge_Door_Geo
usemtl initialShadingGroup
f 3/1/1 5/2/2 4/4/3
f 4/4/3 5/2/2 6/3/4
s 2
f 7/5/5 1/6/6 8/8/7
f 8/8/7 1/6/6 2/7/8
s 3
f 32/16/9 31/22/10 29/14/11
f 29/14/11 31/22/10 30/28/12
s 4
f 12/13/13 20/15/14 11/18/15
f 11/18/15 20/15/14 19/17/16
s 5
f 20/15/17 12/13/18 17/9/19
f 17/9/19 12/13/18 9/10/20
s 6
f 21/19/21 13/20/22 22/23/23
f 22/23/23 13/20/22 14/21/24
s 7
f 26/29/25 28/30/26 25/32/27
f 25/32/27 28/30/26 27/31/28
s 8
f 21/19/29 24/24/30 13/20/31
f 13/20/31 24/24/30 16/25/32
s 9
f 10/11/33 9/10/34 11/18/35
f 11/18/35 9/10/34 12/13/36
s 10
f 14/21/37 13/20/38 15/26/39
f 15/26/39 13/20/38 16/25/40
s 11
f 2/7/41 18/12/42 8/8/43
f 8/8/43 18/12/42 19/17/44
s 4
f 20/15/14 7/5/45 19/17/16
f 19/17/16 7/5/45 8/8/46
s 5
f 20/15/17 17/9/19 7/5/47
f 7/5/47 17/9/19 1/6/48
s 6
f 5/2/49 21/19/21 6/3/50
f 6/3/50 21/19/21 22/23/23
s 12
f 4/4/51 6/3/52 23/27/53
f 23/27/53 6/3/52 22/23/54
s 8
f 21/19/29 5/2/55 24/24/30
f 24/24/30 5/2/55 3/1/56
s 13
f 15/33/57 26/29/58 14/34/59
f 14/34/59 26/29/58 25/32/60
s 14
f 25/32/61 27/31/62 14/34/63
f 14/34/63 27/31/62 22/35/64
s 15
f 27/31/65 28/30/66 22/35/67
f 22/35/67 28/30/66 23/36/68
s 16
f 28/30/69 26/29/70 23/36/71
f 23/36/71 26/29/70 15/33/72
s 17
f 29/14/73 30/28/74 18/37/75
f 18/37/75 30/28/74 19/38/76
s 18
f 19/38/77 30/28/78 11/39/79
f 11/39/79 30/28/78 31/22/80
s 19
f 31/22/81 32/16/82 11/39/83
f 11/39/83 32/16/82 10/40/84
s 20
f 10/40/85 32/16/86 18/37/87
f 18/37/87 32/16/86 29/14/88
g default
v 0.000000 0.000000 0.000000
v 1.522003 0.000000 0.000000
v 0.000000 3.672405 0.000000
v 1.522003 3.672405 0.000000
v 0.000000 3.672405 -1.036227
v 1.522003 3.672405 -1.036227
v 0.000000 0.000000 -1.036227
v 1.522003 0.000000 -1.036227
vt 0.979506 0.054979
vt 0.979506 0.281033
vt 0.434065 0.281033
vt 0.434065 0.054979
vt 0.434065 0.281033
vt 0.434065 0.054979
vt 0.979506 0.054979
vt 0.979506 0.281033
vt 0.044394 0.789134
vt 0.336429 0.789134
vt 0.790209 0.323009
vt 0.971098 0.323009
vt 0.971098 0.964085
vt 0.790209 0.964085
vt 0.459640 0.323009
vt 0.640530 0.323009
vt 0.640530 0.964085
vt 0.459640 0.964085
vt 0.336429 0.987960
vt 0.044394 0.987960
vt 0.336429 0.987960
vt 0.044394 0.987960
vt 0.044394 0.789134
vt 0.336429 0.789134
vn 0.000000 0.000000 1.000000
vn 0.000000 0.000000 1.000000
vn 0.000000 0.000000 1.000000
vn 0.000000 0.000000 1.000000
vn 0.000000 1.000000 0.000000
vn 0.000000 1.000000 0.000000
vn 0.000000 1.000000 0.000000
vn 0.000000 1.000000 0.000000
vn 0.000000 0.000000 -1.000000
vn 0.000000 0.000000 -1.000000
vn 0.000000 0.000000 -1.000000
vn 0.000000 0.000000 -1.000000
vn 0.000000 -1.000000 0.000000
vn 0.000000 -1.000000 0.000000
vn 0.000000 -1.000000 0.000000
vn 0.000000 -1.000000 0.000000
vn 1.000000 0.000000 0.000000
vn 1.000000 0.000000 0.000000
vn 1.000000 0.000000 0.000000
vn 1.000000 0.000000 0.000000
vn -1.000000 0.000000 0.000000
vn -1.000000 0.000000 0.000000
vn -1.000000 0.000000 0.000000
vn -1.000000 0.000000 0.000000
s 1
g FridgeBase_Geo
usemtl initialShadingGroup
f 33/41/89 34/42/90 35/44/91
f 35/44/91 34/42/90 36/43/92
s 2
f 35/49/93 36/50/94 37/60/95
f 37/60/95 36/50/94 38/59/96
s 3
f 37/45/97 38/46/98 39/48/99
f 39/48/99 38/46/98 40/47/100
s 4
f 39/61/101 40/62/102 33/64/103
f 33/64/103 40/62/102 34/63/104
s 5
f 34/51/105 40/52/106 36/54/107
f 36/54/107 40/52/106 38/53/108
s 6
f 39/55/109 33/56/110 37/58/111
f 37/58/111 33/56/110 35/57/112
